<svg width="122" height="48" viewBox="0 0 122 48" fill="none" xmlns="http://www.w3.org/2000/svg">
<path d="M25.888 47.64C21.92 47.64 18.3787 47.1067 15.264 46.04C12.1493 44.9733 9.504 43.4373 7.328 41.432C5.152 39.384 3.488 36.9093 2.336 34.008C1.184 31.1067 0.608 27.864 0.608 24.28C0.608 20.8667 1.22667 17.752 2.464 14.936C3.744 12.0773 5.57867 9.60266 7.968 7.512C10.3573 5.42133 13.1733 3.8 16.416 2.648C19.7013 1.496 23.3493 0.919998 27.36 0.919998C30.3467 0.919998 33.0773 1.26133 35.552 1.944C38.0267 2.62666 40.2453 3.52266 42.208 4.632C44.1707 5.69866 45.8347 6.872 47.2 8.152L39.008 16.984C38.0693 16.216 37.024 15.512 35.872 14.872C34.72 14.232 33.4187 13.72 31.968 13.336C30.56 12.9093 28.96 12.696 27.168 12.696C25.4187 12.696 23.7973 12.9947 22.304 13.592C20.8107 14.1467 19.5093 14.936 18.4 15.96C17.3333 16.984 16.48 18.2213 15.84 19.672C15.2427 21.08 14.944 22.616 14.944 24.28C14.944 26.2 15.264 27.8853 15.904 29.336C16.544 30.7867 17.4187 32.0027 18.528 32.984C19.68 33.9227 21.0027 34.648 22.496 35.16C24.032 35.6293 25.696 35.864 27.488 35.864C28.9387 35.864 30.2613 35.6933 31.456 35.352C32.6933 34.968 33.76 34.4773 34.656 33.88C35.552 33.24 36.2347 32.472 36.704 31.576C37.1733 30.6373 37.4293 29.6347 37.472 28.568V26.904L39.264 30.168H25.696V20.504H50.016C50.0587 21.0587 50.1013 21.848 50.144 22.872C50.2293 23.896 50.272 24.8987 50.272 25.88C50.3147 26.8187 50.336 27.4373 50.336 27.736C50.336 30.7653 49.7387 33.5173 48.544 35.992C47.3493 38.4667 45.664 40.5573 43.488 42.264C41.3547 43.9707 38.7947 45.2933 35.808 46.232C32.8213 47.1707 29.5147 47.64 25.888 47.64ZM53.1485 47V2.2H65.0525L82.9725 28.248L73.6285 28.184L91.7405 2.2H103.389V47H90.0765V36.056C90.0765 32.344 90.1618 28.952 90.3325 25.88C90.5458 22.7653 90.8872 19.6507 91.3565 16.536L92.8285 20.696L80.2845 37.592H76.0605L63.5805 20.568L65.1805 16.536C65.6498 19.5653 65.9698 22.616 66.1405 25.688C66.3538 28.7173 66.4605 32.1733 66.4605 36.056V47H53.1485ZM114.697 47.704C112.35 47.704 110.558 47.1493 109.321 46.04C108.084 44.888 107.465 43.3093 107.465 41.304C107.465 39.512 108.105 37.9973 109.385 36.76C110.665 35.5227 112.436 34.904 114.697 34.904C117.044 34.904 118.836 35.48 120.073 36.632C121.31 37.7413 121.929 39.2987 121.929 41.304C121.929 43.096 121.289 44.6107 120.009 45.848C118.729 47.0853 116.958 47.704 114.697 47.704Z" fill="url(#paint0_angular_2_107)" style="mix-blend-mode:hard-light"/>
<defs>
<radialGradient id="paint0_angular_2_107" cx="0" cy="0" r="1" gradientUnits="userSpaceOnUse" gradientTransform="translate(198 47) rotate(-168.598) scale(82.4028 41.9276)">
<stop/>
<stop offset="1" stop-color="#D03061"/>
</radialGradient>
</defs>
</svg>
