<svg width="34" height="59" viewBox="0 0 34 59" fill="none" xmlns="http://www.w3.org/2000/svg">
<path d="M16.68 29.4C14.2 29.4 11.9867 29.0667 10.04 28.4C8.09333 27.7333 6.44 26.7733 5.08 25.52C3.72 24.24 2.68 22.6933 1.96 20.88C1.24 19.0667 0.88 17.04 0.88 14.8C0.88 12.6667 1.26667 10.72 2.04 8.96C2.84 7.17333 3.98667 5.62667 5.48 4.32C6.97333 3.01333 8.73333 2 10.76 1.28C12.8133 0.559999 15.0933 0.199999 17.6 0.199999C19.4667 0.199999 21.1733 0.413332 22.72 0.839998C24.2667 1.26667 25.6533 1.82667 26.88 2.52C28.1067 3.18667 29.1467 3.92 30 4.72L24.88 10.24C24.2933 9.76 23.64 9.32 22.92 8.92C22.2 8.52 21.3867 8.2 20.48 7.96C19.6 7.69333 18.6 7.56 17.48 7.56C16.3867 7.56 15.3733 7.74667 14.44 8.12C13.5067 8.46667 12.6933 8.96 12 9.6C11.3333 10.24 10.8 11.0133 10.4 11.92C10.0267 12.8 9.84 13.76 9.84 14.8C9.84 16 10.04 17.0533 10.44 17.96C10.84 18.8667 11.3867 19.6267 12.08 20.24C12.8 20.8267 13.6267 21.28 14.56 21.6C15.52 21.8933 16.56 22.04 17.68 22.04C18.5867 22.04 19.4133 21.9333 20.16 21.72C20.9333 21.48 21.6 21.1733 22.16 20.8C22.72 20.4 23.1467 19.92 23.44 19.36C23.7333 18.7733 23.8933 18.1467 23.92 17.48V16.44L25.04 18.48H16.56V12.44H31.76C31.7867 12.7867 31.8133 13.28 31.84 13.92C31.8933 14.56 31.92 15.1867 31.92 15.8C31.9467 16.3867 31.96 16.7733 31.96 16.96C31.96 18.8533 31.5867 20.5733 30.84 22.12C30.0933 23.6667 29.04 24.9733 27.68 26.04C26.3467 27.1067 24.7467 27.9333 22.88 28.52C21.0133 29.1067 18.9467 29.4 16.68 29.4ZM2.56 59V31H10L21.2 47.28L15.36 47.24L26.68 31H33.96V59H25.64V52.16C25.64 49.84 25.6933 47.72 25.8 45.8C25.9333 43.8533 26.1467 41.9067 26.44 39.96L27.36 42.56L19.52 53.12H16.88L9.08 42.48L10.08 39.96C10.3733 41.8533 10.5733 43.76 10.68 45.68C10.8133 47.5733 10.88 49.7333 10.88 52.16V59H2.56Z" fill="#FF0040" style="mix-blend-mode:hard-light"/>
</svg>
